# Created by FreeCAD <https://www.freecad.org>
v 45.990002 -17.779999 2.780000
v 45.990002 -12.080000 3.800000
v 45.990002 -17.779999 3.800000
v 45.990002 -3.180000 3.800000
v 45.990002 2.520000 2.780000
v 45.990002 2.520000 3.800000
v 33.290001 -17.779999 2.780000
v 33.290001 -17.779999 3.800000
v 33.290001 2.520000 2.780000
v 33.290001 2.520000 3.800000
v 42.674122 -16.002804 2.780000
v 42.870808 -16.177052 2.780000
v 42.524853 -15.786549 2.780000
v 43.103481 -16.299168 2.780000
v 42.431675 -15.540854 2.780000
v 42.400002 -15.280000 2.780000
v 42.431675 -15.019146 2.780000
v 42.524853 -14.773452 2.780000
v 42.674122 -14.557197 2.780000
v 43.358616 -16.362053 2.780000
v 43.621384 -16.362053 2.780000
v 43.876518 -16.299168 2.780000
v 44.109192 -16.177052 2.780000
v 44.305878 -16.002804 2.780000
v 44.455147 -15.786549 2.780000
v 44.548328 -15.540854 2.780000
v 44.580002 -15.280000 2.780000
v 44.548328 -15.019146 2.780000
v 44.455147 -14.773452 2.780000
v 42.674122 -0.702803 2.780000
v 42.870808 -0.877052 2.780000
v 42.870808 -14.382948 2.780000
v 42.524853 -0.486548 2.780000
v 43.103481 -0.999168 2.780000
v 43.103481 -14.260832 2.780000
v 43.358616 -14.197948 2.780000
v 42.431675 -0.240854 2.780000
v 43.358616 -1.062053 2.780000
v 42.400002 0.020000 2.780000
v 43.621384 -1.062053 2.780000
v 43.621384 -14.197948 2.780000
v 42.431675 0.280854 2.780000
v 43.876518 -0.999168 2.780000
v 43.876518 -14.260832 2.780000
v 42.524853 0.526549 2.780000
v 44.109192 -14.382948 2.780000
v 44.109192 -0.877052 2.780000
v 44.305878 -14.557197 2.780000
v 42.674122 0.742804 2.780000
v 44.305878 -0.702803 2.780000
v 42.870808 0.917052 2.780000
v 44.455147 -0.486548 2.780000
v 43.103481 1.039168 2.780000
v 44.548328 0.280854 2.780000
v 44.580002 0.020000 2.780000
v 44.455147 0.526549 2.780000
v 44.305878 0.742804 2.780000
v 44.109192 0.917052 2.780000
v 43.876518 1.039168 2.780000
v 43.621384 1.102053 2.780000
v 43.358616 1.102053 2.780000
v 44.548328 -0.240854 2.780000
v 42.870808 -16.177052 3.800000
v 42.674122 -16.002804 3.800000
v 42.524853 -15.786549 3.800000
v 43.103481 -16.299168 3.800000
v 42.431675 -15.540854 3.800000
v 39.689999 -12.080000 3.800000
v 42.400002 -15.280000 3.800000
v 42.431675 -15.019146 3.800000
v 42.524853 -14.773452 3.800000
v 42.674122 -14.557197 3.800000
v 43.358616 -16.362053 3.800000
v 43.621384 -16.362053 3.800000
v 43.876518 -16.299168 3.800000
v 44.109192 -16.177052 3.800000
v 44.305878 -16.002804 3.800000
v 42.870808 -14.382948 3.800000
v 44.455147 -15.786549 3.800000
v 43.103481 -14.260832 3.800000
v 44.548328 -15.540854 3.800000
v 43.358616 -14.197948 3.800000
v 44.580002 -15.280000 3.800000
v 44.548328 -15.019146 3.800000
v 44.455147 -14.773452 3.800000
v 44.305878 -14.557197 3.800000
v 44.109192 -14.382948 3.800000
v 43.876518 -14.260832 3.800000
v 43.621384 -14.197948 3.800000
v 39.689999 -3.180000 3.800000
v 42.870808 -0.877052 3.800000
v 42.674122 -0.702803 3.800000
v 42.524853 -0.486548 3.800000
v 43.103481 -0.999168 3.800000
v 42.431675 -0.240854 3.800000
v 43.358616 -1.062053 3.800000
v 42.400002 0.020000 3.800000
v 42.431675 0.280854 3.800000
v 43.621384 -1.062053 3.800000
v 43.876518 -0.999168 3.800000
v 42.524853 0.526549 3.800000
v 44.109192 -0.877052 3.800000
v 42.674122 0.742804 3.800000
v 44.305878 -0.702803 3.800000
v 42.870808 0.917052 3.800000
v 44.455147 -0.486548 3.800000
v 43.103481 1.039168 3.800000
v 44.548328 -0.240854 3.800000
v 44.580002 0.020000 3.800000
v 44.548328 0.280854 3.800000
v 44.455147 0.526549 3.800000
v 44.305878 0.742804 3.800000
v 44.109192 0.917052 3.800000
v 43.876518 1.039168 3.800000
v 43.621384 1.102053 3.800000
v 43.358616 1.102053 3.800000
v 46.990002 -3.180000 3.800000
v 46.990002 -12.080000 3.800000
v 46.990002 -3.180000 7.100000
v 39.689999 -3.180000 7.100000
v 39.689999 -12.080000 7.100000
v 46.990002 -12.080000 7.100000
vn 1.000000 0.000000 0.000000
vn 1.000000 -0.000000 0.000000
vn 1.000000 0.000000 0.000000
vn 1.000000 -0.000000 0.000000
vn 0.000000 -1.000000 0.000000
vn 0.000000 -1.000000 0.000000
vn 0.000000 1.000000 -0.000000
vn 0.000000 1.000000 0.000000
vn 0.000000 -0.000000 -1.000000
vn 0.000000 0.000000 -1.000000
vn 0.000000 -0.000000 -1.000000
vn 0.000000 0.000000 -1.000000
vn 0.000000 0.000000 -1.000000
vn 0.000000 0.000000 -1.000000
vn 0.000000 0.000000 -1.000000
vn 0.000000 0.000000 -1.000000
vn -0.000000 -0.000000 -1.000000
vn -0.000000 -0.000000 -1.000000
vn 0.000000 -0.000000 -1.000000
vn 0.000000 -0.000000 -1.000000
vn 0.000000 -0.000000 -1.000000
vn 0.000000 0.000000 -1.000000
vn 0.000000 0.000000 -1.000000
vn 0.000000 0.000000 -1.000000
vn 0.000000 0.000000 -1.000000
vn 0.000000 0.000000 -1.000000
vn 0.000000 0.000000 -1.000000
vn 0.000000 0.000000 -1.000000
vn 0.000000 0.000000 -1.000000
vn 0.000000 0.000000 -1.000000
vn 0.000000 0.000000 -1.000000
vn 0.000000 0.000000 -1.000000
vn 0.000000 0.000000 -1.000000
vn 0.000000 0.000000 -1.000000
vn 0.000000 0.000000 -1.000000
vn 0.000000 0.000000 -1.000000
vn 0.000000 0.000000 -1.000000
vn 0.000000 0.000000 -1.000000
vn 0.000000 0.000000 -1.000000
vn 0.000000 0.000000 -1.000000
vn 0.000000 0.000000 -1.000000
vn 0.000000 0.000000 -1.000000
vn 0.000000 0.000000 -1.000000
vn 0.000000 0.000000 -1.000000
vn 0.000000 0.000000 -1.000000
vn 0.000000 0.000000 -1.000000
vn 0.000000 0.000000 -1.000000
vn 0.000000 0.000000 -1.000000
vn 0.000000 0.000000 -1.000000
vn 0.000000 0.000000 -1.000000
vn 0.000000 0.000000 -1.000000
vn 0.000000 0.000000 -1.000000
vn 0.000000 0.000000 -1.000000
vn 0.000000 0.000000 -1.000000
vn 0.000000 0.000000 -1.000000
vn 0.000000 0.000000 -1.000000
vn 0.000000 0.000000 -1.000000
vn 0.000000 0.000000 -1.000000
vn 0.000000 0.000000 -1.000000
vn 0.000000 0.000000 -1.000000
vn 0.000000 0.000000 -1.000000
vn 0.000000 0.000000 -1.000000
vn 0.000000 0.000000 -1.000000
vn 0.000000 -0.000000 -1.000000
vn 0.000000 -0.000000 -1.000000
vn 0.000000 0.000000 -1.000000
vn 0.000000 0.000000 1.000000
vn 0.000000 0.000000 1.000000
vn 0.000000 0.000000 1.000000
vn 0.000000 0.000000 1.000000
vn 0.000000 0.000000 1.000000
vn 0.000000 0.000000 1.000000
vn 0.000000 0.000000 1.000000
vn 0.000000 0.000000 1.000000
vn 0.000000 0.000000 1.000000
vn 0.000000 0.000000 1.000000
vn 0.000000 0.000000 1.000000
vn 0.000000 0.000000 1.000000
vn 0.000000 0.000000 1.000000
vn 0.000000 0.000000 1.000000
vn 0.000000 0.000000 1.000000
vn 0.000000 0.000000 1.000000
vn 0.000000 0.000000 1.000000
vn 0.000000 0.000000 1.000000
vn 0.000000 0.000000 1.000000
vn 0.000000 0.000000 1.000000
vn 0.000000 0.000000 1.000000
vn 0.000000 0.000000 1.000000
vn 0.000000 0.000000 1.000000
vn 0.000000 0.000000 1.000000
vn 0.000000 0.000000 1.000000
vn 0.000000 0.000000 1.000000
vn 0.000000 0.000000 1.000000
vn 0.000000 0.000000 1.000000
vn 0.000000 0.000000 1.000000
vn 0.000000 0.000000 1.000000
vn 0.000000 0.000000 1.000000
vn 0.000000 0.000000 1.000000
vn 0.000000 0.000000 1.000000
vn 0.000000 0.000000 1.000000
vn 0.000000 0.000000 1.000000
vn 0.000000 0.000000 1.000000
vn 0.000000 0.000000 1.000000
vn 0.000000 0.000000 1.000000
vn 0.000000 0.000000 1.000000
vn 0.000000 0.000000 1.000000
vn 0.000000 0.000000 1.000000
vn 0.000000 0.000000 1.000000
vn 0.000000 0.000000 1.000000
vn 0.000000 0.000000 1.000000
vn 0.000000 0.000000 1.000000
vn 0.000000 0.000000 1.000000
vn 0.000000 0.000000 1.000000
vn 0.000000 0.000000 1.000000
vn 0.000000 0.000000 1.000000
vn 0.000000 0.000000 1.000000
vn 0.000000 0.000000 1.000000
vn 0.000000 0.000000 1.000000
vn 0.000000 0.000000 1.000000
vn 0.000000 0.000000 1.000000
vn 0.000000 0.000000 1.000000
vn 0.000000 0.000000 1.000000
vn 0.000000 0.000000 1.000000
vn 0.000000 0.000000 1.000000
vn 0.000000 0.000000 1.000000
vn 0.000000 0.000000 1.000000
vn 0.000000 0.000000 1.000000
vn 0.000000 0.000000 1.000000
vn 0.000000 0.000000 -1.000000
vn 0.000000 0.000000 -1.000000
vn -1.000000 0.000000 0.000000
vn -1.000000 -0.000000 0.000000
vn -0.992709 -0.120537 0.000000
vn -0.992709 -0.120537 0.000000
vn -0.935014 -0.354612 0.000000
vn -0.822986 -0.568062 0.000000
vn -0.935014 -0.354612 0.000000
vn -0.822986 -0.568062 0.000000
vn -0.663123 -0.748510 0.000000
vn -0.464722 -0.885457 0.000000
vn -0.663123 -0.748510 0.000000
vn -0.464722 -0.885457 0.000000
vn -0.239313 -0.970942 0.000000
vn -0.239313 -0.970942 0.000000
vn 0.000000 -1.000000 0.000000
vn 0.000000 -1.000000 0.000000
vn 0.239313 -0.970942 0.000000
vn 0.239313 -0.970942 0.000000
vn 0.464722 -0.885457 0.000000
vn 0.464722 -0.885457 0.000000
vn 0.663123 -0.748510 0.000000
vn 0.663123 -0.748510 0.000000
vn 0.822986 -0.568062 0.000000
vn 0.822986 -0.568062 0.000000
vn 0.935018 -0.354599 0.000000
vn 0.935018 -0.354599 0.000000
vn 0.992709 -0.120537 0.000000
vn 0.992709 -0.120537 0.000000
vn 0.992709 0.120537 -0.000000
vn 0.992709 0.120537 -0.000000
vn 0.935019 0.354598 0.000000
vn 0.935019 0.354598 -0.000000
vn 0.822986 0.568062 -0.000000
vn 0.822986 0.568062 -0.000000
vn 0.663121 0.748512 -0.000000
vn 0.663121 0.748512 0.000000
vn 0.464722 0.885457 -0.000000
vn 0.464722 0.885457 0.000000
vn 0.239317 0.970942 -0.000000
vn 0.239317 0.970942 0.000000
vn 0.000000 1.000000 -0.000000
vn 0.000000 1.000000 0.000000
vn -0.239317 0.970942 0.000000
vn -0.239317 0.970942 0.000000
vn -0.464722 0.885457 0.000000
vn -0.464722 0.885457 0.000000
vn -0.663121 0.748512 0.000000
vn -0.822986 0.568062 0.000000
vn -0.663121 0.748512 0.000000
vn -0.822986 0.568062 0.000000
vn -0.935014 0.354611 0.000000
vn -0.935014 0.354611 0.000000
vn -0.992709 0.120537 0.000000
vn -0.992709 0.120537 0.000000
vn -0.992709 -0.120537 0.000000
vn -0.992709 -0.120537 0.000000
vn -0.935014 -0.354611 0.000000
vn -0.822986 -0.568062 0.000000
vn -0.935014 -0.354611 0.000000
vn -0.822986 -0.568062 0.000000
vn -0.663123 -0.748510 0.000000
vn -0.464719 -0.885458 0.000000
vn -0.663123 -0.748510 0.000000
vn -0.464719 -0.885458 0.000000
vn -0.239317 -0.970942 0.000000
vn -0.239317 -0.970942 0.000000
vn 0.000000 -1.000000 0.000000
vn 0.000000 -1.000000 0.000000
vn 0.239317 -0.970942 0.000000
vn 0.239317 -0.970942 0.000000
vn 0.464719 -0.885458 0.000000
vn 0.464719 -0.885458 0.000000
vn 0.663123 -0.748510 0.000000
vn 0.663123 -0.748510 0.000000
vn 0.822986 -0.568062 0.000000
vn 0.822986 -0.568062 0.000000
vn 0.935019 -0.354599 0.000000
vn 0.935019 -0.354599 0.000000
vn 0.992709 -0.120537 0.000000
vn 0.992709 -0.120537 0.000000
vn 0.992709 0.120537 -0.000000
vn 0.992709 0.120537 -0.000000
vn 0.935018 0.354599 0.000000
vn 0.935018 0.354599 -0.000000
vn 0.822986 0.568062 -0.000000
vn 0.822986 0.568062 -0.000000
vn 0.663123 0.748510 -0.000000
vn 0.663123 0.748510 0.000000
vn 0.464720 0.885458 -0.000000
vn 0.464720 0.885458 0.000000
vn 0.239315 0.970942 -0.000000
vn 0.239315 0.970942 0.000000
vn 0.000000 1.000000 -0.000000
vn 0.000000 1.000000 0.000000
vn -0.239315 0.970942 0.000000
vn -0.239315 0.970942 0.000000
vn -0.464720 0.885458 0.000000
vn -0.464720 0.885458 0.000000
vn -0.663123 0.748510 0.000000
vn -0.822986 0.568062 0.000000
vn -0.663123 0.748510 0.000000
vn -0.822986 0.568062 0.000000
vn -0.935014 0.354612 0.000000
vn -0.935014 0.354612 0.000000
vn -0.992709 0.120537 0.000000
vn -0.992709 0.120537 0.000000
vn 0.000000 1.000000 -0.000000
vn 0.000000 1.000000 -0.000000
vn 0.000000 1.000000 0.000000
vn -1.000000 0.000000 0.000000
vn -1.000000 -0.000000 0.000000
vn 0.000000 -1.000000 0.000000
vn 0.000000 -1.000000 0.000000
vn 0.000000 -1.000000 0.000000
vn 1.000000 0.000000 0.000000
vn 1.000000 -0.000000 0.000000
vn 0.000000 0.000000 1.000000
vn 0.000000 0.000000 1.000000
f 1//1 2//1 3//1
f 4//2 5//2 6//2
f 1//3 5//3 2//3
f 2//4 5//4 4//4
f 7//5 1//5 8//5
f 8//6 1//6 3//6
f 5//7 9//7 6//7
f 6//8 9//8 10//8
f 11//9 12//9 7//9
f 7//10 13//10 11//10
f 12//11 14//11 7//11
f 7//12 15//12 13//12
f 7//13 16//13 15//13
f 7//14 17//14 16//14
f 7//15 18//15 17//15
f 7//16 19//16 18//16
f 20//17 1//17 14//17
f 21//18 1//18 20//18
f 22//19 1//19 21//19
f 23//20 1//20 22//20
f 14//21 1//21 7//21
f 23//22 24//22 1//22
f 24//23 25//23 1//23
f 25//24 26//24 1//24
f 26//25 27//25 1//25
f 27//26 28//26 1//26
f 28//27 29//27 1//27
f 7//28 9//28 19//28
f 9//29 30//29 19//29
f 30//30 31//30 19//30
f 19//31 31//31 32//31
f 9//32 33//32 30//32
f 31//33 34//33 32//33
f 35//34 34//34 36//34
f 32//35 34//35 35//35
f 9//36 37//36 33//36
f 34//37 38//37 36//37
f 9//38 39//38 37//38
f 38//39 40//39 36//39
f 36//40 40//40 41//40
f 9//41 42//41 39//41
f 41//42 43//42 44//42
f 40//43 43//43 41//43
f 9//44 45//44 42//44
f 46//45 47//45 48//45
f 44//46 47//46 46//46
f 43//47 47//47 44//47
f 9//48 49//48 45//48
f 47//49 50//49 48//49
f 9//50 51//50 49//50
f 48//51 52//51 29//51
f 29//52 52//52 1//52
f 50//53 52//53 48//53
f 9//54 53//54 51//54
f 54//55 5//55 55//55
f 56//56 5//56 54//56
f 57//57 5//57 56//57
f 58//58 5//58 57//58
f 59//59 5//59 58//59
f 60//60 5//60 59//60
f 9//61 5//61 53//61
f 61//62 5//62 60//62
f 53//63 5//63 61//63
f 62//64 5//64 52//64
f 55//65 5//65 62//65
f 52//66 5//66 1//66
f 63//67 64//67 8//67
f 65//68 8//68 64//68
f 66//69 63//69 8//69
f 67//70 8//70 65//70
f 68//71 69//71 70//71
f 68//72 67//72 69//72
f 68//73 8//73 67//73
f 71//74 68//74 70//74
f 72//75 68//75 71//75
f 3//76 73//76 66//76
f 3//77 74//77 73//77
f 3//78 75//78 74//78
f 3//79 76//79 75//79
f 3//80 66//80 8//80
f 77//81 76//81 3//81
f 78//82 68//82 72//82
f 79//83 77//83 3//83
f 80//84 68//84 78//84
f 81//85 79//85 3//85
f 82//86 68//86 80//86
f 83//87 81//87 3//87
f 2//88 68//88 82//88
f 2//89 84//89 83//89
f 2//90 85//90 84//90
f 2//91 83//91 3//91
f 2//92 86//92 85//92
f 2//93 87//93 86//93
f 2//94 88//94 87//94
f 2//95 89//95 88//95
f 2//96 82//96 89//96
f 90//97 10//97 8//97
f 90//98 8//98 68//98
f 91//99 92//99 90//99
f 93//100 90//100 92//100
f 94//101 91//101 90//101
f 95//102 90//102 93//102
f 96//103 94//103 90//103
f 97//104 90//104 95//104
f 98//105 90//105 97//105
f 98//106 10//106 90//106
f 4//107 96//107 90//107
f 4//108 99//108 96//108
f 100//109 99//109 4//109
f 101//110 10//110 98//110
f 102//111 100//111 4//111
f 103//112 10//112 101//112
f 104//113 102//113 4//113
f 105//114 10//114 103//114
f 106//115 104//115 4//115
f 107//116 10//116 105//116
f 108//117 106//117 4//117
f 109//118 108//118 4//118
f 6//119 110//119 109//119
f 6//120 111//120 110//120
f 6//121 112//121 111//121
f 6//122 113//122 112//122
f 6//123 114//123 113//123
f 6//124 115//124 114//124
f 6//125 116//125 115//125
f 6//126 107//126 116//126
f 6//127 10//127 107//127
f 6//128 109//128 4//128
f 4//129 117//129 2//129
f 2//130 117//130 118//130
f 9//131 7//131 10//131
f 10//132 7//132 8//132
f 28//133 27//133 83//133
f 28//134 83//134 84//134
f 29//135 84//135 85//135
f 29//136 85//136 86//136
f 29//137 28//137 84//137
f 48//138 29//138 86//138
f 46//139 86//139 87//139
f 46//140 87//140 88//140
f 46//141 48//141 86//141
f 44//142 46//142 88//142
f 41//143 88//143 89//143
f 41//144 44//144 88//144
f 36//145 89//145 82//145
f 36//146 41//146 89//146
f 35//147 82//147 80//147
f 35//148 36//148 82//148
f 32//149 80//149 78//149
f 32//150 35//150 80//150
f 19//151 78//151 72//151
f 19//152 32//152 78//152
f 18//153 72//153 71//153
f 18//154 19//154 72//154
f 17//155 18//155 71//155
f 17//156 71//156 70//156
f 16//157 17//157 70//157
f 16//158 70//158 69//158
f 16//159 69//159 67//159
f 15//160 16//160 67//160
f 13//161 15//161 67//161
f 13//162 67//162 65//162
f 13//163 65//163 64//163
f 11//164 13//164 64//164
f 12//165 64//165 63//165
f 12//166 11//166 64//166
f 14//167 63//167 66//167
f 14//168 12//168 63//168
f 20//169 66//169 73//169
f 20//170 14//170 66//170
f 21//171 73//171 74//171
f 21//172 20//172 73//172
f 22//173 74//173 75//173
f 22//174 21//174 74//174
f 23//175 75//175 76//175
f 23//176 22//176 75//176
f 24//177 76//177 77//177
f 24//178 77//178 79//178
f 24//179 23//179 76//179
f 25//180 24//180 79//180
f 26//181 79//181 81//181
f 26//182 25//182 79//182
f 27//183 26//183 81//183
f 27//184 81//184 83//184
f 54//185 55//185 109//185
f 54//186 109//186 110//186
f 56//187 110//187 111//187
f 56//188 111//188 112//188
f 56//189 54//189 110//189
f 57//190 56//190 112//190
f 58//191 112//191 113//191
f 58//192 113//192 114//192
f 58//193 57//193 112//193
f 59//194 58//194 114//194
f 60//195 114//195 115//195
f 60//196 59//196 114//196
f 61//197 115//197 116//197
f 61//198 60//198 115//198
f 53//199 116//199 107//199
f 53//200 61//200 116//200
f 51//201 107//201 105//201
f 51//202 53//202 107//202
f 49//203 105//203 103//203
f 49//204 51//204 105//204
f 45//205 103//205 101//205
f 45//206 49//206 103//206
f 42//207 45//207 101//207
f 42//208 101//208 98//208
f 39//209 42//209 98//209
f 39//210 98//210 97//210
f 39//211 97//211 95//211
f 37//212 39//212 95//212
f 33//213 37//213 95//213
f 33//214 95//214 93//214
f 33//215 93//215 92//215
f 30//216 33//216 92//216
f 31//217 92//217 91//217
f 31//218 30//218 92//218
f 34//219 91//219 94//219
f 34//220 31//220 91//220
f 38//221 94//221 96//221
f 38//222 34//222 94//222
f 40//223 96//223 99//223
f 40//224 38//224 96//224
f 43//225 99//225 100//225
f 43//226 40//226 99//226
f 47//227 100//227 102//227
f 47//228 43//228 100//228
f 50//229 102//229 104//229
f 50//230 104//230 106//230
f 50//231 47//231 102//231
f 52//232 50//232 106//232
f 62//233 106//233 108//233
f 62//234 52//234 106//234
f 55//235 62//235 108//235
f 55//236 108//236 109//236
f 117//237 4//237 119//237
f 4//238 120//238 119//238
f 4//239 90//239 120//239
f 90//240 68//240 120//240
f 120//241 68//241 121//241
f 68//242 2//242 121//242
f 121//243 2//243 122//243
f 2//244 118//244 122//244
f 118//245 117//245 122//245
f 122//246 117//246 119//246
f 119//247 121//247 122//247
f 119//248 120//248 121//248
