# Created by FreeCAD <https://www.freecad.org>
v -9.221000 26.141430 20.450001
v -9.221000 27.138500 20.450001
v -9.221000 26.141430 18.950001
v -9.221000 27.138500 18.950001
v -10.598639 26.141430 20.450001
v -10.598639 26.141430 18.950001
v 9.221000 27.138500 20.450001
v 9.221000 27.138500 18.950001
v 5.340330 14.328666 20.450001
v 5.141839 14.152819 20.450001
v 9.221000 13.181500 20.450001
v 9.221000 14.127267 20.450001
v 5.490970 14.546906 20.450001
v 4.907033 14.029583 20.450001
v 5.585004 14.794854 20.450001
v 10.598639 18.509169 20.450001
v 9.221000 18.509169 20.450001
v 10.598639 14.127267 20.450001
v 4.649559 13.966122 20.450001
v 5.616968 15.058101 20.450001
v 4.384377 13.966122 20.450001
v 5.585004 15.321348 20.450001
v 5.490970 15.569297 20.450001
v 5.340330 15.787536 20.450001
v 5.141839 15.963384 20.450001
v 4.907033 16.086618 20.450001
v 4.649559 16.150082 20.450001
v 9.221000 21.782801 20.450001
v 4.384377 16.150082 20.450001
v 10.598639 26.133276 20.450001
v 9.221000 26.133276 20.450001
v 10.598639 21.782801 20.450001
v -9.221000 13.181500 20.450001
v 4.126903 14.029583 20.450001
v 3.892097 14.152819 20.450001
v 3.693606 14.328666 20.450001
v 3.542966 14.546906 20.450001
v 3.448932 14.794854 20.450001
v -9.221000 14.131240 20.450001
v 3.448932 15.321348 20.450001
v 3.416968 15.058101 20.450001
v -9.221000 18.506006 20.450001
v -10.598639 14.131240 20.450001
v 4.126903 16.086618 20.450001
v -3.530356 24.482719 20.450001
v 3.892097 15.963384 20.450001
v -3.728847 24.306871 20.450001
v 3.693606 15.787536 20.450001
v -3.379716 24.700958 20.450001
v -3.963653 24.183636 20.450001
v 3.542966 15.569297 20.450001
v -3.285682 24.948906 20.450001
v -4.221128 24.120174 20.450001
v -3.253718 25.212154 20.450001
v -4.486309 24.120174 20.450001
v -3.285682 25.475401 20.450001
v -3.379716 25.723351 20.450001
v -10.598639 18.506006 20.450001
v -3.530356 25.941589 20.450001
v -3.728847 26.117435 20.450001
v -4.743783 24.183636 20.450001
v -9.221000 21.752390 20.450001
v -4.978589 24.306871 20.450001
v -5.177080 24.482719 20.450001
v -5.327720 24.700958 20.450001
v -5.421754 24.948906 20.450001
v -5.421754 25.475401 20.450001
v -5.453718 25.212154 20.450001
v -5.327720 25.723351 20.450001
v -5.177080 25.941589 20.450001
v -4.978589 26.117435 20.450001
v -4.743783 26.240671 20.450001
v -4.486309 26.304134 20.450001
v -10.598639 21.752390 20.450001
v -4.221128 26.304134 20.450001
v -3.963653 26.240671 20.450001
v 5.141839 14.152819 18.950001
v 5.340330 14.328666 18.950001
v 9.221000 13.181500 18.950001
v 5.490970 14.546906 18.950001
v 9.221000 14.127267 18.950001
v 4.907033 14.029583 18.950001
v 5.585004 14.794854 18.950001
v 9.221000 18.509169 18.950001
v 10.598639 18.509169 18.950001
v 10.598639 14.127267 18.950001
v 4.649559 13.966122 18.950001
v 5.616968 15.058101 18.950001
v 4.384377 13.966122 18.950001
v 5.585004 15.321348 18.950001
v 5.490970 15.569297 18.950001
v 5.340330 15.787536 18.950001
v 5.141839 15.963384 18.950001
v 4.907033 16.086618 18.950001
v 9.221000 26.133276 18.950001
v 10.598639 26.133276 18.950001
v 10.598639 21.782801 18.950001
v 9.221000 21.782801 18.950001
v 3.479893 20.642521 18.950001
v 3.892097 15.963384 18.950001
v 3.693606 15.787536 18.950001
v 4.126903 16.086618 18.950001
v 4.384377 16.150082 18.950001
v 4.649559 16.150082 18.950001
v -9.221000 13.181500 18.950001
v 4.126903 14.029583 18.950001
v 3.892097 14.152819 18.950001
v 3.693606 14.328666 18.950001
v 3.542966 14.546906 18.950001
v 3.448932 14.794854 18.950001
v -1.820889 20.642521 18.950001
v 3.448932 15.321348 18.950001
v 3.416968 15.058101 18.950001
v 3.542966 15.569297 18.950001
v 3.479893 26.193655 18.950001
v -9.221000 14.131240 18.950001
v -9.221000 18.506006 18.950001
v -3.728847 24.306871 18.950001
v -3.530356 24.482719 18.950001
v -3.379716 24.700958 18.950001
v -1.820889 26.193655 18.950001
v -3.963653 24.183636 18.950001
v -3.285682 24.948906 18.950001
v -4.221128 24.120174 18.950001
v -3.253718 25.212154 18.950001
v -4.486309 24.120174 18.950001
v -3.285682 25.475401 18.950001
v -4.743783 24.183636 18.950001
v -3.379716 25.723351 18.950001
v -10.598639 18.506006 18.950001
v -10.598639 14.131240 18.950001
v -3.530356 25.941589 18.950001
v -3.728847 26.117435 18.950001
v -3.963653 26.240671 18.950001
v -4.221128 26.304134 18.950001
v -9.221000 21.752390 18.950001
v -4.978589 24.306871 18.950001
v -5.177080 24.482719 18.950001
v -5.327720 24.700958 18.950001
v -5.421754 24.948906 18.950001
v -5.421754 25.475401 18.950001
v -5.453718 25.212154 18.950001
v -5.327720 25.723351 18.950001
v -5.177080 25.941589 18.950001
v -4.978589 26.117435 18.950001
v -4.743783 26.240671 18.950001
v -4.486309 26.304134 18.950001
v -10.598639 21.752390 18.950001
v 3.479893 26.193655 16.950001
v 3.479893 20.642521 16.950001
v -1.820889 20.642521 16.950001
v -1.820889 26.193655 16.950001
vn -1.000000 0.000000 0.000000
vn -1.000000 0.000000 0.000000
vn -0.000000 1.000000 0.000000
vn 0.000000 1.000000 0.000000
vn -0.000000 1.000000 0.000000
vn 0.000000 1.000000 0.000000
vn 0.000000 0.000000 1.000000
vn 0.000000 0.000000 1.000000
vn 0.000000 0.000000 1.000000
vn 0.000000 0.000000 1.000000
vn 0.000000 0.000000 1.000000
vn 0.000000 0.000000 1.000000
vn 0.000000 0.000000 1.000000
vn 0.000000 0.000000 1.000000
vn 0.000000 0.000000 1.000000
vn 0.000000 0.000000 1.000000
vn 0.000000 0.000000 1.000000
vn 0.000000 0.000000 1.000000
vn 0.000000 0.000000 1.000000
vn 0.000000 0.000000 1.000000
vn 0.000000 0.000000 1.000000
vn 0.000000 0.000000 1.000000
vn 0.000000 0.000000 1.000000
vn 0.000000 -0.000000 1.000000
vn 0.000000 -0.000000 1.000000
vn 0.000000 0.000000 1.000000
vn 0.000000 0.000000 1.000000
vn 0.000000 0.000000 1.000000
vn 0.000000 0.000000 1.000000
vn 0.000000 0.000000 1.000000
vn 0.000000 0.000000 1.000000
vn 0.000000 0.000000 1.000000
vn 0.000000 0.000000 1.000000
vn 0.000000 0.000000 1.000000
vn 0.000000 0.000000 1.000000
vn 0.000000 0.000000 1.000000
vn 0.000000 -0.000000 1.000000
vn 0.000000 0.000000 1.000000
vn 0.000000 0.000000 1.000000
vn 0.000000 0.000000 1.000000
vn 0.000000 0.000000 1.000000
vn 0.000000 0.000000 1.000000
vn 0.000000 0.000000 1.000000
vn 0.000000 0.000000 1.000000
vn 0.000000 0.000000 1.000000
vn 0.000000 0.000000 1.000000
vn 0.000000 0.000000 1.000000
vn 0.000000 0.000000 1.000000
vn 0.000000 0.000000 1.000000
vn 0.000000 0.000000 1.000000
vn 0.000000 0.000000 1.000000
vn 0.000000 0.000000 1.000000
vn 0.000000 0.000000 1.000000
vn 0.000000 0.000000 1.000000
vn 0.000000 0.000000 1.000000
vn 0.000000 0.000000 1.000000
vn 0.000000 0.000000 1.000000
vn 0.000000 0.000000 1.000000
vn 0.000000 0.000000 1.000000
vn 0.000000 0.000000 1.000000
vn 0.000000 0.000000 1.000000
vn 0.000000 0.000000 1.000000
vn 0.000000 0.000000 1.000000
vn 0.000000 0.000000 1.000000
vn 0.000000 0.000000 1.000000
vn 0.000000 0.000000 1.000000
vn 0.000000 0.000000 1.000000
vn 0.000000 0.000000 1.000000
vn 0.000000 0.000000 1.000000
vn 0.000000 0.000000 1.000000
vn 0.000000 0.000000 1.000000
vn 0.000000 0.000000 1.000000
vn 0.000000 0.000000 1.000000
vn 0.000000 0.000000 1.000000
vn 0.000000 0.000000 1.000000
vn 0.000000 0.000000 1.000000
vn 0.000000 0.000000 1.000000
vn 0.000000 0.000000 1.000000
vn 0.000000 0.000000 1.000000
vn 0.000000 0.000000 1.000000
vn 0.000000 0.000000 -1.000000
vn 0.000000 0.000000 -1.000000
vn 0.000000 -0.000000 -1.000000
vn 0.000000 0.000000 -1.000000
vn 0.000000 -0.000000 -1.000000
vn 0.000000 0.000000 -1.000000
vn 0.000000 0.000000 -1.000000
vn 0.000000 0.000000 -1.000000
vn 0.000000 -0.000000 -1.000000
vn 0.000000 0.000000 -1.000000
vn 0.000000 0.000000 -1.000000
vn 0.000000 0.000000 -1.000000
vn 0.000000 0.000000 -1.000000
vn 0.000000 0.000000 -1.000000
vn 0.000000 0.000000 -1.000000
vn 0.000000 0.000000 -1.000000
vn 0.000000 0.000000 -1.000000
vn 0.000000 0.000000 -1.000000
vn 0.000000 0.000000 -1.000000
vn 0.000000 0.000000 -1.000000
vn 0.000000 0.000000 -1.000000
vn 0.000000 0.000000 -1.000000
vn 0.000000 0.000000 -1.000000
vn 0.000000 0.000000 -1.000000
vn 0.000000 0.000000 -1.000000
vn 0.000000 0.000000 -1.000000
vn 0.000000 0.000000 -1.000000
vn 0.000000 0.000000 -1.000000
vn 0.000000 0.000000 -1.000000
vn 0.000000 0.000000 -1.000000
vn 0.000000 0.000000 -1.000000
vn 0.000000 0.000000 -1.000000
vn 0.000000 0.000000 -1.000000
vn 0.000000 0.000000 -1.000000
vn 0.000000 0.000000 -1.000000
vn 0.000000 0.000000 -1.000000
vn 0.000000 0.000000 -1.000000
vn 0.000000 0.000000 -1.000000
vn 0.000000 0.000000 -1.000000
vn 0.000000 0.000000 -1.000000
vn 0.000000 0.000000 -1.000000
vn 0.000000 0.000000 -1.000000
vn 0.000000 0.000000 -1.000000
vn 0.000000 0.000000 -1.000000
vn 0.000000 -0.000000 -1.000000
vn 0.000000 0.000000 -1.000000
vn 0.000000 -0.000000 -1.000000
vn 0.000000 0.000000 -1.000000
vn 0.000000 -0.000000 -1.000000
vn 0.000000 0.000000 -1.000000
vn 0.000000 0.000000 -1.000000
vn 0.000000 0.000000 -1.000000
vn 0.000000 0.000000 -1.000000
vn 0.000000 0.000000 -1.000000
vn 0.000000 0.000000 -1.000000
vn 0.000000 0.000000 -1.000000
vn 0.000000 0.000000 -1.000000
vn 0.000000 0.000000 -1.000000
vn 0.000000 0.000000 -1.000000
vn 0.000000 0.000000 -1.000000
vn 0.000000 0.000000 -1.000000
vn 0.000000 0.000000 -1.000000
vn 0.000000 0.000000 -1.000000
vn 0.000000 0.000000 -1.000000
vn 0.000000 0.000000 -1.000000
vn 0.000000 0.000000 -1.000000
vn 0.000000 0.000000 -1.000000
vn 0.000000 0.000000 -1.000000
vn 0.000000 0.000000 -1.000000
vn 0.000000 0.000000 -1.000000
vn 0.000000 0.000000 -1.000000
vn 0.000000 0.000000 -1.000000
vn 0.000000 0.000000 -1.000000
vn 0.000000 0.000000 -1.000000
vn 0.000000 0.000000 -1.000000
vn 0.000000 0.000000 -1.000000
vn 0.000000 0.000000 -1.000000
vn 0.000000 0.000000 -1.000000
vn 0.000000 0.000000 -1.000000
vn 0.000000 0.000000 -1.000000
vn -1.000000 0.000000 0.000000
vn -1.000000 0.000000 0.000000
vn 1.000000 0.000000 0.000000
vn 1.000000 0.000000 0.000000
vn -0.000000 1.000000 0.000000
vn 0.000000 1.000000 0.000000
vn 1.000000 0.000000 0.000000
vn 1.000000 0.000000 0.000000
vn -0.000000 -1.000000 -0.000000
vn 0.000000 -1.000000 0.000000
vn 1.000000 0.000000 0.000000
vn 1.000000 0.000000 0.000000
vn -0.000000 1.000000 0.000000
vn 0.000000 1.000000 0.000000
vn 1.000000 0.000000 0.000000
vn 1.000000 0.000000 0.000000
vn -0.000000 -1.000000 -0.000000
vn 0.000000 -1.000000 0.000000
vn 1.000000 0.000000 0.000000
vn 1.000000 0.000000 0.000000
vn -0.000000 -1.000000 -0.000000
vn 0.000000 -1.000000 0.000000
vn -1.000000 0.000000 0.000000
vn -1.000000 0.000000 0.000000
vn -0.000000 -1.000000 0.000000
vn 0.000000 -1.000000 -0.000000
vn -1.000000 0.000000 0.000000
vn -1.000000 0.000000 0.000000
vn -0.000000 1.000000 0.000000
vn 0.000000 1.000000 0.000000
vn -1.000000 0.000000 0.000000
vn -1.000000 0.000000 0.000000
vn -0.000000 -1.000000 0.000000
vn 0.000000 -1.000000 -0.000000
vn 0.992709 -0.120536 0.000000
vn 0.992709 -0.120536 0.000000
vn 0.935016 -0.354605 0.000000
vn 0.935016 -0.354605 0.000000
vn 0.822983 -0.568066 0.000000
vn 0.822983 -0.568066 0.000000
vn 0.663124 -0.748510 0.000000
vn 0.464721 -0.885457 0.000000
vn 0.663124 -0.748510 0.000000
vn 0.464721 -0.885457 0.000000
vn 0.239320 -0.970941 0.000000
vn 0.239320 -0.970941 0.000000
vn 0.000000 -1.000000 -0.000000
vn -0.000000 -1.000000 0.000000
vn -0.239320 -0.970941 -0.000000
vn -0.239320 -0.970941 0.000000
vn -0.464721 -0.885457 -0.000000
vn -0.464721 -0.885457 0.000000
vn -0.663124 -0.748510 -0.000000
vn -0.663124 -0.748510 0.000000
vn -0.822983 -0.568066 -0.000000
vn -0.822983 -0.568066 0.000000
vn -0.935017 -0.354604 0.000000
vn -0.935017 -0.354604 -0.000000
vn -0.992709 -0.120538 0.000000
vn -0.992709 -0.120538 -0.000000
vn -0.992709 0.120538 0.000000
vn -0.992709 0.120538 0.000000
vn -0.935017 0.354604 0.000000
vn -0.935017 0.354604 0.000000
vn -0.822984 0.568065 0.000000
vn -0.822984 0.568065 0.000000
vn -0.663122 0.748511 0.000000
vn -0.663122 0.748511 0.000000
vn -0.464724 0.885456 0.000000
vn -0.239314 0.970942 0.000000
vn -0.464724 0.885456 0.000000
vn -0.239314 0.970942 0.000000
vn 0.000000 1.000000 0.000000
vn -0.000000 1.000000 0.000000
vn 0.239314 0.970942 0.000000
vn 0.239314 0.970942 0.000000
vn 0.464723 0.885456 0.000000
vn 0.464723 0.885456 0.000000
vn 0.663122 0.748511 0.000000
vn 0.822984 0.568064 0.000000
vn 0.663122 0.748511 0.000000
vn 0.822984 0.568064 0.000000
vn 0.935016 0.354605 0.000000
vn 0.992709 0.120536 0.000000
vn 0.935016 0.354605 0.000000
vn 0.992709 0.120536 0.000000
vn 0.992709 -0.120538 0.000000
vn 0.992709 -0.120538 0.000000
vn 0.935017 -0.354603 0.000000
vn 0.935017 -0.354603 0.000000
vn 0.822983 -0.568066 0.000000
vn 0.822983 -0.568066 0.000000
vn 0.663120 -0.748513 0.000000
vn 0.464724 -0.885456 0.000000
vn 0.663120 -0.748513 0.000000
vn 0.464724 -0.885456 0.000000
vn 0.239320 -0.970941 0.000000
vn 0.239320 -0.970941 0.000000
vn 0.000000 -1.000000 -0.000000
vn -0.000000 -1.000000 0.000000
vn -0.239320 -0.970941 -0.000000
vn -0.239320 -0.970941 0.000000
vn -0.464723 -0.885456 -0.000000
vn -0.464723 -0.885456 0.000000
vn -0.663120 -0.748513 -0.000000
vn -0.663120 -0.748513 0.000000
vn -0.822983 -0.568066 -0.000000
vn -0.822983 -0.568066 0.000000
vn -0.935017 -0.354603 0.000000
vn -0.935017 -0.354603 -0.000000
vn -0.992709 -0.120537 0.000000
vn -0.992709 -0.120537 -0.000000
vn -0.992709 0.120536 0.000000
vn -0.992709 0.120536 0.000000
vn -0.935016 0.354606 0.000000
vn -0.935016 0.354606 0.000000
vn -0.822983 0.568066 0.000000
vn -0.822983 0.568066 0.000000
vn -0.663124 0.748510 0.000000
vn -0.663124 0.748510 0.000000
vn -0.464723 0.885456 0.000000
vn -0.239314 0.970942 0.000000
vn -0.464723 0.885456 0.000000
vn -0.239314 0.970942 0.000000
vn 0.000000 1.000000 0.000000
vn -0.000000 1.000000 0.000000
vn 0.239314 0.970942 0.000000
vn 0.239314 0.970942 0.000000
vn 0.464724 0.885456 0.000000
vn 0.464724 0.885456 0.000000
vn 0.663124 0.748510 0.000000
vn 0.822983 0.568066 0.000000
vn 0.663124 0.748510 0.000000
vn 0.822983 0.568066 0.000000
vn 0.935016 0.354605 0.000000
vn 0.992709 0.120537 0.000000
vn 0.935016 0.354605 0.000000
vn 0.992709 0.120537 0.000000
vn 1.000000 0.000000 0.000000
vn 1.000000 0.000000 0.000000
vn -0.000000 -1.000000 -0.000000
vn 0.000000 -1.000000 0.000000
vn -1.000000 0.000000 0.000000
vn -1.000000 0.000000 0.000000
vn -0.000000 1.000000 0.000000
vn 0.000000 1.000000 0.000000
vn 0.000000 0.000000 -1.000000
vn 0.000000 0.000000 -1.000000
f 1//1 2//1 3//1
f 3//2 2//2 4//2
f 5//3 1//3 3//3
f 5//4 3//4 6//4
f 2//5 7//5 4//5
f 4//6 7//6 8//6
f 9//7 10//7 11//7
f 12//8 13//8 11//8
f 11//9 13//9 9//9
f 10//10 14//10 11//10
f 12//11 15//11 13//11
f 16//12 17//12 18//12
f 18//13 17//13 12//13
f 14//14 19//14 11//14
f 12//15 20//15 15//15
f 19//16 21//16 11//16
f 17//17 22//17 12//17
f 12//18 22//18 20//18
f 17//19 23//19 22//19
f 17//20 24//20 23//20
f 17//21 25//21 24//21
f 17//22 26//22 25//22
f 17//23 27//23 26//23
f 17//24 28//24 27//24
f 27//25 28//25 29//25
f 30//26 31//26 32//26
f 32//27 31//27 28//27
f 21//28 33//28 11//28
f 34//29 33//29 21//29
f 35//30 33//30 34//30
f 36//31 33//31 35//31
f 37//32 33//32 36//32
f 38//33 33//33 37//33
f 38//34 39//34 33//34
f 40//35 39//35 41//35
f 41//36 39//36 38//36
f 39//37 42//37 43//37
f 40//38 42//38 39//38
f 44//39 45//39 46//39
f 46//40 47//40 48//40
f 45//41 47//41 46//41
f 44//42 49//42 45//42
f 29//43 49//43 44//43
f 28//44 49//44 29//44
f 48//45 50//45 51//45
f 47//46 50//46 48//46
f 31//47 52//47 28//47
f 28//48 52//48 49//48
f 51//49 53//49 40//49
f 40//50 53//50 42//50
f 50//51 53//51 51//51
f 31//52 54//52 52//52
f 53//53 55//53 42//53
f 7//54 56//54 31//54
f 31//55 56//55 54//55
f 7//56 57//56 56//56
f 42//57 58//57 43//57
f 7//58 59//58 57//58
f 7//59 60//59 59//59
f 61//60 62//60 55//60
f 55//61 62//61 42//61
f 63//62 62//62 61//62
f 64//63 62//63 63//63
f 65//64 62//64 64//64
f 66//65 62//65 65//65
f 66//66 1//66 62//66
f 67//67 1//67 68//67
f 69//68 1//68 67//68
f 68//69 1//69 66//69
f 69//70 2//70 1//70
f 70//71 2//71 69//71
f 71//72 2//72 70//72
f 72//73 2//73 71//73
f 73//74 2//74 72//74
f 1//75 5//75 62//75
f 62//76 5//76 74//76
f 7//77 2//77 75//77
f 7//78 75//78 76//78
f 7//79 76//79 60//79
f 75//80 2//80 73//80
f 77//81 78//81 79//81
f 80//82 81//82 79//82
f 80//83 79//83 78//83
f 82//84 77//84 79//84
f 83//85 81//85 80//85
f 84//86 85//86 86//86
f 84//87 86//87 81//87
f 87//88 82//88 79//88
f 88//89 81//89 83//89
f 89//90 87//90 79//90
f 90//91 84//91 81//91
f 90//92 81//92 88//92
f 91//93 84//93 90//93
f 92//94 84//94 91//94
f 93//95 84//95 92//95
f 94//96 84//96 93//96
f 95//97 96//97 97//97
f 95//98 97//98 98//98
f 99//99 98//99 84//99
f 99//100 84//100 94//100
f 99//101 100//101 101//101
f 99//102 102//102 100//102
f 99//103 103//103 102//103
f 99//104 104//104 103//104
f 99//105 94//105 104//105
f 105//106 106//106 89//106
f 105//107 107//107 106//107
f 105//108 108//108 107//108
f 105//109 109//109 108//109
f 105//110 110//110 109//110
f 105//111 89//111 79//111
f 111//112 112//112 113//112
f 111//113 114//113 112//113
f 111//114 101//114 114//114
f 111//115 99//115 101//115
f 115//116 8//116 95//116
f 115//117 95//117 98//117
f 115//118 98//118 99//118
f 116//119 110//119 105//119
f 116//120 113//120 110//120
f 116//121 111//121 113//121
f 117//122 111//122 116//122
f 118//123 119//123 111//123
f 120//124 121//124 111//124
f 120//125 111//125 119//125
f 122//126 118//126 111//126
f 123//127 121//127 120//127
f 124//128 122//128 111//128
f 125//129 121//129 123//129
f 126//130 124//130 111//130
f 127//131 121//131 125//131
f 128//132 126//132 111//132
f 129//133 121//133 127//133
f 130//134 116//134 131//134
f 130//135 117//135 116//135
f 132//136 121//136 129//136
f 133//137 121//137 132//137
f 134//138 121//138 133//138
f 135//139 121//139 134//139
f 136//140 111//140 117//140
f 136//141 137//141 128//141
f 136//142 138//142 137//142
f 136//143 139//143 138//143
f 136//144 128//144 111//144
f 136//145 140//145 139//145
f 3//146 140//146 136//146
f 3//147 141//147 142//147
f 3//148 143//148 141//148
f 3//149 142//149 140//149
f 4//150 143//150 3//150
f 4//151 144//151 143//151
f 4//152 145//152 144//152
f 4//153 146//153 145//153
f 4//154 147//154 146//154
f 6//155 3//155 136//155
f 6//156 136//156 148//156
f 4//157 8//157 135//157
f 135//158 8//158 121//158
f 121//159 8//159 115//159
f 4//160 135//160 147//160
f 74//161 5//161 6//161
f 74//162 6//162 148//162
f 7//163 31//163 95//163
f 7//164 95//164 8//164
f 31//165 30//165 95//165
f 95//166 30//166 96//166
f 30//167 32//167 96//167
f 96//168 32//168 97//168
f 32//169 28//169 97//169
f 97//170 28//170 98//170
f 28//171 17//171 98//171
f 98//172 17//172 84//172
f 17//173 16//173 84//173
f 84//174 16//174 85//174
f 16//175 18//175 85//175
f 85//176 18//176 86//176
f 18//177 12//177 86//177
f 86//178 12//178 81//178
f 12//179 11//179 81//179
f 81//180 11//180 79//180
f 11//181 33//181 79//181
f 79//182 33//182 105//182
f 33//183 39//183 116//183
f 33//184 116//184 105//184
f 39//185 43//185 131//185
f 39//186 131//186 116//186
f 43//187 58//187 130//187
f 43//188 130//188 131//188
f 58//189 42//189 117//189
f 58//190 117//190 130//190
f 42//191 62//191 117//191
f 117//192 62//192 136//192
f 62//193 74//193 148//193
f 62//194 148//194 136//194
f 40//195 41//195 113//195
f 40//196 113//196 112//196
f 51//197 112//197 114//197
f 51//198 40//198 112//198
f 48//199 114//199 101//199
f 48//200 51//200 114//200
f 46//201 101//201 100//201
f 46//202 100//202 102//202
f 46//203 48//203 101//203
f 44//204 46//204 102//204
f 29//205 102//205 103//205
f 29//206 44//206 102//206
f 27//207 103//207 104//207
f 27//208 29//208 103//208
f 26//209 104//209 94//209
f 26//210 27//210 104//210
f 25//211 94//211 93//211
f 25//212 26//212 94//212
f 24//213 93//213 92//213
f 24//214 25//214 93//214
f 23//215 92//215 91//215
f 23//216 24//216 92//216
f 22//217 23//217 91//217
f 22//218 91//218 90//218
f 20//219 22//219 90//219
f 20//220 90//220 88//220
f 15//221 88//221 83//221
f 15//222 20//222 88//222
f 13//223 83//223 80//223
f 13//224 15//224 83//224
f 9//225 80//225 78//225
f 9//226 13//226 80//226
f 10//227 78//227 77//227
f 10//228 9//228 78//228
f 14//229 77//229 82//229
f 14//230 82//230 87//230
f 14//231 10//231 77//231
f 19//232 14//232 87//232
f 21//233 87//233 89//233
f 21//234 19//234 87//234
f 34//235 89//235 106//235
f 34//236 21//236 89//236
f 35//237 106//237 107//237
f 35//238 34//238 106//238
f 36//239 107//239 108//239
f 36//240 108//240 109//240
f 36//241 35//241 107//241
f 37//242 36//242 109//242
f 38//243 109//243 110//243
f 38//244 110//244 113//244
f 38//245 37//245 109//245
f 41//246 38//246 113//246
f 67//247 68//247 142//247
f 67//248 142//248 141//248
f 69//249 141//249 143//249
f 69//250 67//250 141//250
f 70//251 143//251 144//251
f 70//252 69//252 143//252
f 71//253 144//253 145//253
f 71//254 145//254 146//254
f 71//255 70//255 144//255
f 72//256 71//256 146//256
f 73//257 146//257 147//257
f 73//258 72//258 146//258
f 75//259 147//259 135//259
f 75//260 73//260 147//260
f 76//261 135//261 134//261
f 76//262 75//262 135//262
f 60//263 134//263 133//263
f 60//264 76//264 134//264
f 59//265 133//265 132//265
f 59//266 60//266 133//266
f 57//267 132//267 129//267
f 57//268 59//268 132//268
f 56//269 57//269 129//269
f 56//270 129//270 127//270
f 54//271 56//271 127//271
f 54//272 127//272 125//272
f 52//273 125//273 123//273
f 52//274 54//274 125//274
f 49//275 123//275 120//275
f 49//276 52//276 123//276
f 45//277 120//277 119//277
f 45//278 49//278 120//278
f 47//279 119//279 118//279
f 47//280 45//280 119//280
f 50//281 118//281 122//281
f 50//282 122//282 124//282
f 50//283 47//283 118//283
f 53//284 50//284 124//284
f 55//285 124//285 126//285
f 55//286 53//286 124//286
f 61//287 126//287 128//287
f 61//288 55//288 126//288
f 63//289 128//289 137//289
f 63//290 61//290 128//290
f 64//291 137//291 138//291
f 64//292 138//292 139//292
f 64//293 63//293 137//293
f 65//294 64//294 139//294
f 66//295 139//295 140//295
f 66//296 140//296 142//296
f 66//297 65//297 139//297
f 68//298 66//298 142//298
f 115//299 99//299 149//299
f 149//300 99//300 150//300
f 99//301 111//301 150//301
f 150//302 111//302 151//302
f 111//303 121//303 151//303
f 151//304 121//304 152//304
f 121//305 115//305 152//305
f 152//306 115//306 149//306
f 152//307 149//307 150//307
f 152//308 150//308 151//308
